<mxfile host="Electron" agent="Mozilla/5.0 (Windows NT 10.0; Win64; x64) AppleWebKit/537.36 (KHTML, like Gecko) draw.io/28.0.4 Chrome/138.0.7204.97 Electron/37.2.1 Safari/537.36" version="28.0.4">
  <diagram name="Página-1" id="-fP9cxPzkYCuCNnUQfwM">
    <mxGraphModel dx="2053" dy="746" grid="1" gridSize="10" guides="1" tooltips="1" connect="1" arrows="1" fold="1" page="1" pageScale="1" pageWidth="827" pageHeight="1169" math="0" shadow="0">
      <root>
        <mxCell id="0" />
        <mxCell id="1" parent="0" />
        <mxCell id="C2fw_D1W394n6Z49bw6W-7" value="contabilidade" style="swimlane;startSize=20;horizontal=0;html=1;" parent="1" vertex="1">
          <mxGeometry x="-30" y="20" width="4990" height="685" as="geometry" />
        </mxCell>
        <mxCell id="C2fw_D1W394n6Z49bw6W-12" style="edgeStyle=orthogonalEdgeStyle;rounded=0;orthogonalLoop=1;jettySize=auto;html=1;" parent="C2fw_D1W394n6Z49bw6W-7" source="C2fw_D1W394n6Z49bw6W-10" target="C2fw_D1W394n6Z49bw6W-11" edge="1">
          <mxGeometry relative="1" as="geometry" />
        </mxCell>
        <mxCell id="C2fw_D1W394n6Z49bw6W-10" value="INICIO" style="ellipse;whiteSpace=wrap;html=1;fillColor=#60a917;fontColor=#ffffff;strokeColor=#2D7600;" parent="C2fw_D1W394n6Z49bw6W-7" vertex="1">
          <mxGeometry x="30" y="35" width="70" height="50" as="geometry" />
        </mxCell>
        <mxCell id="C2fw_D1W394n6Z49bw6W-22" style="edgeStyle=orthogonalEdgeStyle;rounded=0;orthogonalLoop=1;jettySize=auto;html=1;entryX=0;entryY=0.5;entryDx=0;entryDy=0;" parent="C2fw_D1W394n6Z49bw6W-7" source="C2fw_D1W394n6Z49bw6W-11" target="C2fw_D1W394n6Z49bw6W-21" edge="1">
          <mxGeometry relative="1" as="geometry" />
        </mxCell>
        <mxCell id="C2fw_D1W394n6Z49bw6W-11" value="Acessa Questor Zen" style="rounded=0;whiteSpace=wrap;html=1;fillColor=#ffff88;strokeColor=#36393d;" parent="C2fw_D1W394n6Z49bw6W-7" vertex="1">
          <mxGeometry x="130" y="30" width="120" height="60" as="geometry" />
        </mxCell>
        <mxCell id="C2fw_D1W394n6Z49bw6W-32" style="edgeStyle=orthogonalEdgeStyle;rounded=0;orthogonalLoop=1;jettySize=auto;html=1;" parent="C2fw_D1W394n6Z49bw6W-7" source="C2fw_D1W394n6Z49bw6W-21" target="C2fw_D1W394n6Z49bw6W-31" edge="1">
          <mxGeometry relative="1" as="geometry" />
        </mxCell>
        <mxCell id="C2fw_D1W394n6Z49bw6W-77" style="edgeStyle=orthogonalEdgeStyle;rounded=0;orthogonalLoop=1;jettySize=auto;html=1;entryX=0;entryY=0.5;entryDx=0;entryDy=0;" parent="C2fw_D1W394n6Z49bw6W-7" source="C2fw_D1W394n6Z49bw6W-21" target="C2fw_D1W394n6Z49bw6W-49" edge="1">
          <mxGeometry relative="1" as="geometry" />
        </mxCell>
        <mxCell id="C2fw_D1W394n6Z49bw6W-21" value="Tem todos os documentos?" style="rhombus;whiteSpace=wrap;html=1;fillColor=#ffcc99;strokeColor=#36393d;" parent="C2fw_D1W394n6Z49bw6W-7" vertex="1">
          <mxGeometry x="287.5" y="12.5" width="105" height="95" as="geometry" />
        </mxCell>
        <mxCell id="C2fw_D1W394n6Z49bw6W-31" value="Cobra cliente" style="rounded=0;whiteSpace=wrap;html=1;fillColor=#ffff88;strokeColor=#36393d;" parent="C2fw_D1W394n6Z49bw6W-7" vertex="1">
          <mxGeometry x="280" y="150" width="120" height="60" as="geometry" />
        </mxCell>
        <mxCell id="C2fw_D1W394n6Z49bw6W-33" value="Não" style="text;strokeColor=none;align=center;fillColor=none;html=1;verticalAlign=middle;whiteSpace=wrap;rounded=0;" parent="C2fw_D1W394n6Z49bw6W-7" vertex="1">
          <mxGeometry x="342.5" y="115" width="50" height="20" as="geometry" />
        </mxCell>
        <mxCell id="C2fw_D1W394n6Z49bw6W-60" style="edgeStyle=orthogonalEdgeStyle;rounded=0;orthogonalLoop=1;jettySize=auto;html=1;entryX=0;entryY=0.5;entryDx=0;entryDy=0;" parent="C2fw_D1W394n6Z49bw6W-7" source="C2fw_D1W394n6Z49bw6W-49" target="C2fw_D1W394n6Z49bw6W-58" edge="1">
          <mxGeometry relative="1" as="geometry" />
        </mxCell>
        <mxCell id="C2fw_D1W394n6Z49bw6W-49" value="Baixar todos os arquivos" style="rounded=0;whiteSpace=wrap;html=1;fillColor=#ffff88;strokeColor=#36393d;" parent="C2fw_D1W394n6Z49bw6W-7" vertex="1">
          <mxGeometry x="450" y="30" width="120" height="60" as="geometry" />
        </mxCell>
        <mxCell id="C2fw_D1W394n6Z49bw6W-51" value="Sim" style="text;strokeColor=none;align=center;fillColor=none;html=1;verticalAlign=middle;whiteSpace=wrap;rounded=0;" parent="C2fw_D1W394n6Z49bw6W-7" vertex="1">
          <mxGeometry x="392.5" y="35" width="50" height="20" as="geometry" />
        </mxCell>
        <mxCell id="C2fw_D1W394n6Z49bw6W-63" style="edgeStyle=orthogonalEdgeStyle;rounded=0;orthogonalLoop=1;jettySize=auto;html=1;" parent="C2fw_D1W394n6Z49bw6W-7" source="C2fw_D1W394n6Z49bw6W-56" target="C2fw_D1W394n6Z49bw6W-62" edge="1">
          <mxGeometry relative="1" as="geometry" />
        </mxCell>
        <mxCell id="C2fw_D1W394n6Z49bw6W-56" value="Separação de arquivos nas pastas do servidor" style="rounded=0;whiteSpace=wrap;html=1;fillColor=#ffff88;strokeColor=#36393d;" parent="C2fw_D1W394n6Z49bw6W-7" vertex="1">
          <mxGeometry x="780" y="30" width="120" height="60" as="geometry" />
        </mxCell>
        <mxCell id="C2fw_D1W394n6Z49bw6W-61" style="edgeStyle=orthogonalEdgeStyle;rounded=0;orthogonalLoop=1;jettySize=auto;html=1;" parent="C2fw_D1W394n6Z49bw6W-7" source="C2fw_D1W394n6Z49bw6W-58" target="C2fw_D1W394n6Z49bw6W-56" edge="1">
          <mxGeometry relative="1" as="geometry" />
        </mxCell>
        <mxCell id="C2fw_D1W394n6Z49bw6W-58" value="Extrai arquivos" style="shape=document;whiteSpace=wrap;html=1;boundedLbl=1;fillColor=#cce5ff;strokeColor=#36393d;" parent="C2fw_D1W394n6Z49bw6W-7" vertex="1">
          <mxGeometry x="610" y="23.75" width="130" height="72.5" as="geometry" />
        </mxCell>
        <mxCell id="C2fw_D1W394n6Z49bw6W-62" value="Renomeiação dos nomes dos arquivos" style="rounded=0;whiteSpace=wrap;html=1;fillColor=#ffff88;strokeColor=#36393d;" parent="C2fw_D1W394n6Z49bw6W-7" vertex="1">
          <mxGeometry x="930" y="30" width="120" height="60" as="geometry" />
        </mxCell>
        <mxCell id="C2fw_D1W394n6Z49bw6W-74" style="edgeStyle=orthogonalEdgeStyle;rounded=0;orthogonalLoop=1;jettySize=auto;html=1;entryX=0;entryY=0.5;entryDx=0;entryDy=0;" parent="C2fw_D1W394n6Z49bw6W-7" source="C2fw_D1W394n6Z49bw6W-64" target="C2fw_D1W394n6Z49bw6W-73" edge="1">
          <mxGeometry relative="1" as="geometry" />
        </mxCell>
        <mxCell id="C2fw_D1W394n6Z49bw6W-64" value="Limpeza das planllhas do cliente (colunas)" style="rounded=0;whiteSpace=wrap;html=1;fillColor=#ffff88;strokeColor=#36393d;" parent="C2fw_D1W394n6Z49bw6W-7" vertex="1">
          <mxGeometry x="1090" y="30" width="120" height="60" as="geometry" />
        </mxCell>
        <mxCell id="C2fw_D1W394n6Z49bw6W-70" style="edgeStyle=orthogonalEdgeStyle;rounded=0;orthogonalLoop=1;jettySize=auto;html=1;" parent="C2fw_D1W394n6Z49bw6W-7" source="C2fw_D1W394n6Z49bw6W-62" target="C2fw_D1W394n6Z49bw6W-64" edge="1">
          <mxGeometry relative="1" as="geometry">
            <mxPoint x="1280" y="60.305000000000064" as="targetPoint" />
          </mxGeometry>
        </mxCell>
        <mxCell id="kWE39vU798PIdqg170Gp-329" style="edgeStyle=orthogonalEdgeStyle;rounded=0;orthogonalLoop=1;jettySize=auto;html=1;entryX=0;entryY=0.5;entryDx=0;entryDy=0;" parent="C2fw_D1W394n6Z49bw6W-7" source="C2fw_D1W394n6Z49bw6W-73" target="kWE39vU798PIdqg170Gp-327" edge="1">
          <mxGeometry relative="1" as="geometry" />
        </mxCell>
        <mxCell id="C2fw_D1W394n6Z49bw6W-73" value="Abertura de extrato bancario" style="rounded=0;whiteSpace=wrap;html=1;fillColor=#ffff88;strokeColor=#36393d;" parent="C2fw_D1W394n6Z49bw6W-7" vertex="1">
          <mxGeometry x="1250" y="30" width="120" height="60" as="geometry" />
        </mxCell>
        <mxCell id="C2fw_D1W394n6Z49bw6W-80" style="edgeStyle=orthogonalEdgeStyle;rounded=0;orthogonalLoop=1;jettySize=auto;html=1;" parent="C2fw_D1W394n6Z49bw6W-7" source="C2fw_D1W394n6Z49bw6W-75" target="C2fw_D1W394n6Z49bw6W-79" edge="1">
          <mxGeometry relative="1" as="geometry" />
        </mxCell>
        <mxCell id="C2fw_D1W394n6Z49bw6W-75" value="Filtra data da planilha" style="rounded=0;whiteSpace=wrap;html=1;fillColor=#ffff88;strokeColor=#36393d;" parent="C2fw_D1W394n6Z49bw6W-7" vertex="1">
          <mxGeometry x="1520" y="30" width="120" height="60" as="geometry" />
        </mxCell>
        <mxCell id="C2fw_D1W394n6Z49bw6W-82" style="edgeStyle=orthogonalEdgeStyle;rounded=0;orthogonalLoop=1;jettySize=auto;html=1;" parent="C2fw_D1W394n6Z49bw6W-7" source="C2fw_D1W394n6Z49bw6W-79" target="C2fw_D1W394n6Z49bw6W-85" edge="1">
          <mxGeometry relative="1" as="geometry">
            <mxPoint x="1780.0000000000005" y="60" as="targetPoint" />
          </mxGeometry>
        </mxCell>
        <mxCell id="C2fw_D1W394n6Z49bw6W-79" value="Ultima data?" style="rhombus;whiteSpace=wrap;html=1;fillColor=#ffcc99;strokeColor=#36393d;" parent="C2fw_D1W394n6Z49bw6W-7" vertex="1">
          <mxGeometry x="1670" y="12.5" width="105" height="95" as="geometry" />
        </mxCell>
        <mxCell id="C2fw_D1W394n6Z49bw6W-83" value="Não" style="text;strokeColor=none;align=center;fillColor=none;html=1;verticalAlign=middle;whiteSpace=wrap;rounded=0;" parent="C2fw_D1W394n6Z49bw6W-7" vertex="1">
          <mxGeometry x="1770" y="35" width="60" height="30" as="geometry" />
        </mxCell>
        <mxCell id="kWE39vU798PIdqg170Gp-324" style="edgeStyle=orthogonalEdgeStyle;rounded=0;orthogonalLoop=1;jettySize=auto;html=1;entryX=0;entryY=0.5;entryDx=0;entryDy=0;" parent="C2fw_D1W394n6Z49bw6W-7" source="C2fw_D1W394n6Z49bw6W-85" target="C2fw_D1W394n6Z49bw6W-92" edge="1">
          <mxGeometry relative="1" as="geometry" />
        </mxCell>
        <mxCell id="C2fw_D1W394n6Z49bw6W-85" value="Filtra tipo de lançamento" style="rounded=0;whiteSpace=wrap;html=1;fillColor=#ffff88;strokeColor=#36393d;" parent="C2fw_D1W394n6Z49bw6W-7" vertex="1">
          <mxGeometry x="1850" y="30" width="120" height="60" as="geometry" />
        </mxCell>
        <mxCell id="C2fw_D1W394n6Z49bw6W-90" value="É fornecedor?" style="rhombus;whiteSpace=wrap;html=1;fillColor=#ffcc99;strokeColor=#36393d;" parent="C2fw_D1W394n6Z49bw6W-7" vertex="1">
          <mxGeometry x="2020" y="155" width="105" height="95" as="geometry" />
        </mxCell>
        <mxCell id="kWE39vU798PIdqg170Gp-2" style="edgeStyle=orthogonalEdgeStyle;rounded=0;orthogonalLoop=1;jettySize=auto;html=1;" parent="C2fw_D1W394n6Z49bw6W-7" source="C2fw_D1W394n6Z49bw6W-92" target="kWE39vU798PIdqg170Gp-1" edge="1">
          <mxGeometry relative="1" as="geometry" />
        </mxCell>
        <mxCell id="kWE39vU798PIdqg170Gp-325" style="edgeStyle=orthogonalEdgeStyle;rounded=0;orthogonalLoop=1;jettySize=auto;html=1;entryX=0.5;entryY=0;entryDx=0;entryDy=0;" parent="C2fw_D1W394n6Z49bw6W-7" source="C2fw_D1W394n6Z49bw6W-92" target="C2fw_D1W394n6Z49bw6W-90" edge="1">
          <mxGeometry relative="1" as="geometry" />
        </mxCell>
        <mxCell id="C2fw_D1W394n6Z49bw6W-92" value="É cliente&lt;span style=&quot;background-color: transparent; color: light-dark(rgb(0, 0, 0), rgb(255, 255, 255));&quot;&gt;?&lt;/span&gt;" style="rhombus;whiteSpace=wrap;html=1;fillColor=#ffcc99;strokeColor=#36393d;" parent="C2fw_D1W394n6Z49bw6W-7" vertex="1">
          <mxGeometry x="2020" y="2.5" width="105" height="95" as="geometry" />
        </mxCell>
        <mxCell id="kWE39vU798PIdqg170Gp-99" style="edgeStyle=orthogonalEdgeStyle;rounded=0;orthogonalLoop=1;jettySize=auto;html=1;entryX=0;entryY=0.5;entryDx=0;entryDy=0;" parent="C2fw_D1W394n6Z49bw6W-7" source="kWE39vU798PIdqg170Gp-1" target="kWE39vU798PIdqg170Gp-97" edge="1">
          <mxGeometry relative="1" as="geometry" />
        </mxCell>
        <mxCell id="kWE39vU798PIdqg170Gp-5" value="Sim" style="text;strokeColor=none;align=center;fillColor=none;html=1;verticalAlign=middle;whiteSpace=wrap;rounded=0;" parent="C2fw_D1W394n6Z49bw6W-7" vertex="1">
          <mxGeometry x="2150" y="23.75" width="60" height="30" as="geometry" />
        </mxCell>
        <mxCell id="kWE39vU798PIdqg170Gp-96" style="edgeStyle=orthogonalEdgeStyle;rounded=0;orthogonalLoop=1;jettySize=auto;html=1;exitX=1;exitY=0.5;exitDx=0;exitDy=0;" parent="C2fw_D1W394n6Z49bw6W-7" source="kWE39vU798PIdqg170Gp-7" target="kWE39vU798PIdqg170Gp-49" edge="1">
          <mxGeometry relative="1" as="geometry" />
        </mxCell>
        <mxCell id="kWE39vU798PIdqg170Gp-193" style="edgeStyle=orthogonalEdgeStyle;rounded=0;orthogonalLoop=1;jettySize=auto;html=1;" parent="C2fw_D1W394n6Z49bw6W-7" source="kWE39vU798PIdqg170Gp-7" target="kWE39vU798PIdqg170Gp-192" edge="1">
          <mxGeometry relative="1" as="geometry">
            <Array as="points">
              <mxPoint x="2160" y="202" />
              <mxPoint x="2160" y="280" />
              <mxPoint x="1770" y="280" />
            </Array>
          </mxGeometry>
        </mxCell>
        <mxCell id="kWE39vU798PIdqg170Gp-7" value="Possui cadastro?" style="rhombus;whiteSpace=wrap;html=1;fillColor=#ffcc99;strokeColor=#36393d;" parent="C2fw_D1W394n6Z49bw6W-7" vertex="1">
          <mxGeometry x="2220" y="155" width="105" height="95" as="geometry" />
        </mxCell>
        <mxCell id="kWE39vU798PIdqg170Gp-49" value="Identificar conta contabil" style="rounded=0;whiteSpace=wrap;html=1;fillColor=#ffff88;strokeColor=#36393d;" parent="C2fw_D1W394n6Z49bw6W-7" vertex="1">
          <mxGeometry x="2400" y="172.5" width="120" height="60" as="geometry" />
        </mxCell>
        <mxCell id="kWE39vU798PIdqg170Gp-94" value="Sim" style="text;strokeColor=none;align=center;fillColor=none;html=1;verticalAlign=middle;whiteSpace=wrap;rounded=0;" parent="C2fw_D1W394n6Z49bw6W-7" vertex="1">
          <mxGeometry x="2310" y="172.5" width="60" height="30" as="geometry" />
        </mxCell>
        <mxCell id="kWE39vU798PIdqg170Gp-97" value="Conferencia dos lançamentos" style="rounded=0;whiteSpace=wrap;html=1;fillColor=#ffff88;strokeColor=#36393d;" parent="C2fw_D1W394n6Z49bw6W-7" vertex="1">
          <mxGeometry x="2470" y="27.5" width="120" height="60" as="geometry" />
        </mxCell>
        <mxCell id="kWE39vU798PIdqg170Gp-103" style="edgeStyle=orthogonalEdgeStyle;rounded=0;orthogonalLoop=1;jettySize=auto;html=1;" parent="C2fw_D1W394n6Z49bw6W-7" source="kWE39vU798PIdqg170Gp-100" target="kWE39vU798PIdqg170Gp-102" edge="1">
          <mxGeometry relative="1" as="geometry" />
        </mxCell>
        <mxCell id="kWE39vU798PIdqg170Gp-164" style="edgeStyle=orthogonalEdgeStyle;rounded=0;orthogonalLoop=1;jettySize=auto;html=1;" parent="C2fw_D1W394n6Z49bw6W-7" source="kWE39vU798PIdqg170Gp-100" target="kWE39vU798PIdqg170Gp-161" edge="1">
          <mxGeometry relative="1" as="geometry">
            <Array as="points">
              <mxPoint x="2750" y="193" />
            </Array>
          </mxGeometry>
        </mxCell>
        <mxCell id="kWE39vU798PIdqg170Gp-100" value="Total diario bateu?" style="rhombus;whiteSpace=wrap;html=1;fillColor=#ffcc99;strokeColor=#36393d;" parent="C2fw_D1W394n6Z49bw6W-7" vertex="1">
          <mxGeometry x="2690" y="10" width="120" height="95" as="geometry" />
        </mxCell>
        <mxCell id="kWE39vU798PIdqg170Gp-101" style="edgeStyle=orthogonalEdgeStyle;rounded=0;orthogonalLoop=1;jettySize=auto;html=1;entryX=0.095;entryY=0.526;entryDx=0;entryDy=0;entryPerimeter=0;" parent="C2fw_D1W394n6Z49bw6W-7" source="kWE39vU798PIdqg170Gp-97" target="kWE39vU798PIdqg170Gp-100" edge="1">
          <mxGeometry relative="1" as="geometry">
            <Array as="points">
              <mxPoint x="2681" y="58" />
            </Array>
          </mxGeometry>
        </mxCell>
        <mxCell id="kWE39vU798PIdqg170Gp-280" style="edgeStyle=orthogonalEdgeStyle;rounded=0;orthogonalLoop=1;jettySize=auto;html=1;" parent="C2fw_D1W394n6Z49bw6W-7" source="kWE39vU798PIdqg170Gp-102" target="kWE39vU798PIdqg170Gp-281" edge="1">
          <mxGeometry relative="1" as="geometry">
            <mxPoint x="3260" y="57.5" as="targetPoint" />
          </mxGeometry>
        </mxCell>
        <mxCell id="kWE39vU798PIdqg170Gp-102" value="Identifca se o lançamento é debito ou crédito" style="rounded=0;whiteSpace=wrap;html=1;fillColor=#ffff88;strokeColor=#36393d;" parent="C2fw_D1W394n6Z49bw6W-7" vertex="1">
          <mxGeometry x="2865" y="27.5" width="120" height="60" as="geometry" />
        </mxCell>
        <mxCell id="kWE39vU798PIdqg170Gp-104" value="Sim" style="text;strokeColor=none;align=center;fillColor=none;html=1;verticalAlign=middle;whiteSpace=wrap;rounded=0;" parent="C2fw_D1W394n6Z49bw6W-7" vertex="1">
          <mxGeometry x="2790" y="35" width="60" height="30" as="geometry" />
        </mxCell>
        <mxCell id="kWE39vU798PIdqg170Gp-167" style="edgeStyle=orthogonalEdgeStyle;rounded=0;orthogonalLoop=1;jettySize=auto;html=1;entryX=0.5;entryY=1;entryDx=0;entryDy=0;" parent="C2fw_D1W394n6Z49bw6W-7" source="kWE39vU798PIdqg170Gp-161" target="kWE39vU798PIdqg170Gp-102" edge="1">
          <mxGeometry relative="1" as="geometry" />
        </mxCell>
        <mxCell id="kWE39vU798PIdqg170Gp-169" style="edgeStyle=orthogonalEdgeStyle;rounded=0;orthogonalLoop=1;jettySize=auto;html=1;entryX=0;entryY=0.5;entryDx=0;entryDy=0;" parent="C2fw_D1W394n6Z49bw6W-7" source="kWE39vU798PIdqg170Gp-161" target="kWE39vU798PIdqg170Gp-170" edge="1">
          <mxGeometry relative="1" as="geometry">
            <mxPoint x="3050" y="192.5" as="targetPoint" />
            <Array as="points">
              <mxPoint x="3070" y="192" />
            </Array>
          </mxGeometry>
        </mxCell>
        <mxCell id="kWE39vU798PIdqg170Gp-161" value="Achou divergencia?" style="rhombus;whiteSpace=wrap;html=1;fillColor=#ffcc99;strokeColor=#36393d;" parent="C2fw_D1W394n6Z49bw6W-7" vertex="1">
          <mxGeometry x="2865" y="145" width="120" height="95" as="geometry" />
        </mxCell>
        <mxCell id="kWE39vU798PIdqg170Gp-165" value="Não" style="text;html=1;align=center;verticalAlign=middle;resizable=0;points=[];autosize=1;strokeColor=none;fillColor=none;" parent="C2fw_D1W394n6Z49bw6W-7" vertex="1">
          <mxGeometry x="2770" y="172.5" width="50" height="30" as="geometry" />
        </mxCell>
        <mxCell id="kWE39vU798PIdqg170Gp-168" value="Sim" style="text;html=1;align=center;verticalAlign=middle;resizable=0;points=[];autosize=1;strokeColor=none;fillColor=none;" parent="C2fw_D1W394n6Z49bw6W-7" vertex="1">
          <mxGeometry x="2925" y="105" width="40" height="30" as="geometry" />
        </mxCell>
        <mxCell id="kWE39vU798PIdqg170Gp-170" value="Comunica o cliente" style="rounded=0;whiteSpace=wrap;html=1;fillColor=#ffff88;strokeColor=#36393d;" parent="C2fw_D1W394n6Z49bw6W-7" vertex="1">
          <mxGeometry x="3070" y="157.5" width="120" height="60" as="geometry" />
        </mxCell>
        <mxCell id="kWE39vU798PIdqg170Gp-192" value="Verifica com o Fiscal do cliente (Questor Zen)" style="rounded=0;whiteSpace=wrap;html=1;fillColor=#ffff88;strokeColor=#36393d;" parent="C2fw_D1W394n6Z49bw6W-7" vertex="1">
          <mxGeometry x="1710" y="320" width="120" height="60" as="geometry" />
        </mxCell>
        <mxCell id="kWE39vU798PIdqg170Gp-194" value="Não" style="text;strokeColor=none;align=center;fillColor=none;html=1;verticalAlign=middle;whiteSpace=wrap;rounded=0;" parent="C2fw_D1W394n6Z49bw6W-7" vertex="1">
          <mxGeometry x="1790" y="250" width="60" height="30" as="geometry" />
        </mxCell>
        <mxCell id="kWE39vU798PIdqg170Gp-272" style="edgeStyle=orthogonalEdgeStyle;rounded=0;orthogonalLoop=1;jettySize=auto;html=1;" parent="C2fw_D1W394n6Z49bw6W-7" source="kWE39vU798PIdqg170Gp-267" target="kWE39vU798PIdqg170Gp-271" edge="1">
          <mxGeometry relative="1" as="geometry" />
        </mxCell>
        <mxCell id="kWE39vU798PIdqg170Gp-267" value="Recebe comunicado" style="shape=document;whiteSpace=wrap;html=1;boundedLbl=1;fillColor=#cce5ff;strokeColor=#36393d;" parent="C2fw_D1W394n6Z49bw6W-7" vertex="1">
          <mxGeometry x="1880" y="310" width="120" height="80" as="geometry" />
        </mxCell>
        <mxCell id="kWE39vU798PIdqg170Gp-271" value="Envia notificação ao fiscal interno" style="rounded=0;whiteSpace=wrap;html=1;fillColor=#ffff88;strokeColor=#36393d;" parent="C2fw_D1W394n6Z49bw6W-7" vertex="1">
          <mxGeometry x="2080" y="320" width="120" height="60" as="geometry" />
        </mxCell>
        <mxCell id="kWE39vU798PIdqg170Gp-344" style="edgeStyle=orthogonalEdgeStyle;rounded=0;orthogonalLoop=1;jettySize=auto;html=1;" parent="C2fw_D1W394n6Z49bw6W-7" source="kWE39vU798PIdqg170Gp-281" target="kWE39vU798PIdqg170Gp-343" edge="1">
          <mxGeometry relative="1" as="geometry" />
        </mxCell>
        <mxCell id="kWE39vU798PIdqg170Gp-281" value="Identifca se o lançamento é debito ou crédito" style="rounded=0;whiteSpace=wrap;html=1;fillColor=#ffff88;strokeColor=#36393d;" parent="C2fw_D1W394n6Z49bw6W-7" vertex="1">
          <mxGeometry x="3070" y="27.5" width="120" height="60" as="geometry" />
        </mxCell>
        <mxCell id="kWE39vU798PIdqg170Gp-178" value="Fiscal" style="swimlane;startSize=20;horizontal=0;html=1;" parent="C2fw_D1W394n6Z49bw6W-7" vertex="1">
          <mxGeometry y="565" width="4990" height="120" as="geometry" />
        </mxCell>
        <mxCell id="kWE39vU798PIdqg170Gp-179" value="Email" style="text;strokeColor=none;align=center;fillColor=none;html=1;verticalAlign=middle;whiteSpace=wrap;rounded=0;" parent="kWE39vU798PIdqg170Gp-178" vertex="1">
          <mxGeometry x="490" width="50" height="20" as="geometry" />
        </mxCell>
        <mxCell id="kWE39vU798PIdqg170Gp-275" value="Recebe comunicado" style="shape=document;whiteSpace=wrap;html=1;boundedLbl=1;fillColor=#cce5ff;strokeColor=#36393d;" parent="kWE39vU798PIdqg170Gp-178" vertex="1">
          <mxGeometry x="2200" y="35" width="120" height="80" as="geometry" />
        </mxCell>
        <mxCell id="kWE39vU798PIdqg170Gp-273" value="" style="endArrow=none;dashed=1;html=1;dashPattern=1 3;strokeWidth=2;rounded=0;exitX=1;exitY=0.5;exitDx=0;exitDy=0;" parent="kWE39vU798PIdqg170Gp-178" source="kWE39vU798PIdqg170Gp-275" target="kWE39vU798PIdqg170Gp-276" edge="1">
          <mxGeometry width="50" height="50" relative="1" as="geometry">
            <mxPoint x="2340" y="74.40999999999997" as="sourcePoint" />
            <mxPoint x="2380" y="74" as="targetPoint" />
            <Array as="points" />
          </mxGeometry>
        </mxCell>
        <mxCell id="kWE39vU798PIdqg170Gp-276" value="Ajuste fiscal" style="ellipse;whiteSpace=wrap;html=1;" parent="kWE39vU798PIdqg170Gp-178" vertex="1">
          <mxGeometry x="2380" y="43.75" width="70" height="62.5" as="geometry" />
        </mxCell>
        <mxCell id="qAqsIYxRw6M11E9_2Hnw-51" value="Recebe comunicado" style="shape=document;whiteSpace=wrap;html=1;boundedLbl=1;fillColor=#cce5ff;strokeColor=#36393d;" vertex="1" parent="kWE39vU798PIdqg170Gp-178">
          <mxGeometry x="4560" y="35" width="120" height="80" as="geometry" />
        </mxCell>
        <mxCell id="qAqsIYxRw6M11E9_2Hnw-53" value="" style="endArrow=none;dashed=1;html=1;dashPattern=1 3;strokeWidth=2;rounded=0;exitX=1;exitY=0.5;exitDx=0;exitDy=0;" edge="1" parent="kWE39vU798PIdqg170Gp-178" target="qAqsIYxRw6M11E9_2Hnw-54" source="qAqsIYxRw6M11E9_2Hnw-51">
          <mxGeometry width="50" height="50" relative="1" as="geometry">
            <mxPoint x="4700" y="66.25" as="sourcePoint" />
            <mxPoint x="4760" y="65.25" as="targetPoint" />
            <Array as="points" />
          </mxGeometry>
        </mxCell>
        <mxCell id="qAqsIYxRw6M11E9_2Hnw-54" value="Ajuste fiscal" style="ellipse;whiteSpace=wrap;html=1;" vertex="1" parent="kWE39vU798PIdqg170Gp-178">
          <mxGeometry x="4760" y="43.75" width="70" height="62.5" as="geometry" />
        </mxCell>
        <mxCell id="kWE39vU798PIdqg170Gp-274" style="edgeStyle=orthogonalEdgeStyle;rounded=0;orthogonalLoop=1;jettySize=auto;html=1;entryX=0.5;entryY=0;entryDx=0;entryDy=0;" parent="C2fw_D1W394n6Z49bw6W-7" source="kWE39vU798PIdqg170Gp-271" target="kWE39vU798PIdqg170Gp-275" edge="1">
          <mxGeometry relative="1" as="geometry">
            <mxPoint x="2260" y="590" as="targetPoint" />
            <Array as="points">
              <mxPoint x="2260" y="350" />
            </Array>
          </mxGeometry>
        </mxCell>
        <mxCell id="kWE39vU798PIdqg170Gp-1" value="Coloca conta contabil padrão (142)" style="rounded=0;whiteSpace=wrap;html=1;fillColor=#ffff88;strokeColor=#36393d;" parent="C2fw_D1W394n6Z49bw6W-7" vertex="1">
          <mxGeometry x="2260" y="27.5" width="120" height="60" as="geometry" />
        </mxCell>
        <mxCell id="kWE39vU798PIdqg170Gp-277" style="edgeStyle=orthogonalEdgeStyle;rounded=0;orthogonalLoop=1;jettySize=auto;html=1;" parent="C2fw_D1W394n6Z49bw6W-7" source="kWE39vU798PIdqg170Gp-276" target="kWE39vU798PIdqg170Gp-49" edge="1">
          <mxGeometry relative="1" as="geometry" />
        </mxCell>
        <mxCell id="kWE39vU798PIdqg170Gp-319" style="edgeStyle=orthogonalEdgeStyle;rounded=0;orthogonalLoop=1;jettySize=auto;html=1;entryX=0.573;entryY=0.963;entryDx=0;entryDy=0;entryPerimeter=0;" parent="C2fw_D1W394n6Z49bw6W-7" source="kWE39vU798PIdqg170Gp-49" target="kWE39vU798PIdqg170Gp-97" edge="1">
          <mxGeometry relative="1" as="geometry" />
        </mxCell>
        <mxCell id="kWE39vU798PIdqg170Gp-330" style="edgeStyle=orthogonalEdgeStyle;rounded=0;orthogonalLoop=1;jettySize=auto;html=1;exitX=1;exitY=0.5;exitDx=0;exitDy=0;entryX=0;entryY=0.5;entryDx=0;entryDy=0;" parent="C2fw_D1W394n6Z49bw6W-7" source="kWE39vU798PIdqg170Gp-327" target="C2fw_D1W394n6Z49bw6W-75" edge="1">
          <mxGeometry relative="1" as="geometry" />
        </mxCell>
        <mxCell id="kWE39vU798PIdqg170Gp-334" style="edgeStyle=orthogonalEdgeStyle;rounded=0;orthogonalLoop=1;jettySize=auto;html=1;entryX=0.5;entryY=0;entryDx=0;entryDy=0;" parent="C2fw_D1W394n6Z49bw6W-7" source="kWE39vU798PIdqg170Gp-327" target="kWE39vU798PIdqg170Gp-333" edge="1">
          <mxGeometry relative="1" as="geometry" />
        </mxCell>
        <mxCell id="kWE39vU798PIdqg170Gp-327" value="Totais batem?" style="rhombus;whiteSpace=wrap;html=1;fillColor=#ffcc99;strokeColor=#36393d;" parent="C2fw_D1W394n6Z49bw6W-7" vertex="1">
          <mxGeometry x="1400" y="12.5" width="105" height="95" as="geometry" />
        </mxCell>
        <mxCell id="kWE39vU798PIdqg170Gp-331" value="Sim" style="text;strokeColor=none;align=center;fillColor=none;html=1;verticalAlign=middle;whiteSpace=wrap;rounded=0;" parent="C2fw_D1W394n6Z49bw6W-7" vertex="1">
          <mxGeometry x="1480" y="25" width="60" height="30" as="geometry" />
        </mxCell>
        <mxCell id="kWE39vU798PIdqg170Gp-332" value="Não" style="text;strokeColor=none;align=center;fillColor=none;html=1;verticalAlign=middle;whiteSpace=wrap;rounded=0;" parent="C2fw_D1W394n6Z49bw6W-7" vertex="1">
          <mxGeometry x="1452.5" y="115" width="60" height="30" as="geometry" />
        </mxCell>
        <mxCell id="kWE39vU798PIdqg170Gp-335" style="edgeStyle=orthogonalEdgeStyle;rounded=0;orthogonalLoop=1;jettySize=auto;html=1;" parent="C2fw_D1W394n6Z49bw6W-7" source="kWE39vU798PIdqg170Gp-333" target="kWE39vU798PIdqg170Gp-336" edge="1">
          <mxGeometry relative="1" as="geometry">
            <mxPoint x="1452.5" y="480" as="targetPoint" />
          </mxGeometry>
        </mxCell>
        <mxCell id="kWE39vU798PIdqg170Gp-333" value="Comunica o cliente a divergencia" style="rounded=0;whiteSpace=wrap;html=1;fillColor=#ffff88;strokeColor=#36393d;" parent="C2fw_D1W394n6Z49bw6W-7" vertex="1">
          <mxGeometry x="1392.5" y="150" width="120" height="60" as="geometry" />
        </mxCell>
        <mxCell id="kWE39vU798PIdqg170Gp-338" style="edgeStyle=orthogonalEdgeStyle;rounded=0;orthogonalLoop=1;jettySize=auto;html=1;" parent="C2fw_D1W394n6Z49bw6W-7" source="kWE39vU798PIdqg170Gp-336" target="kWE39vU798PIdqg170Gp-337" edge="1">
          <mxGeometry relative="1" as="geometry" />
        </mxCell>
        <mxCell id="kWE39vU798PIdqg170Gp-336" value="Recebe comunicado" style="shape=document;whiteSpace=wrap;html=1;boundedLbl=1;fillColor=#cce5ff;strokeColor=#36393d;" parent="C2fw_D1W394n6Z49bw6W-7" vertex="1">
          <mxGeometry x="1392.5" y="470" width="120" height="80" as="geometry" />
        </mxCell>
        <mxCell id="kWE39vU798PIdqg170Gp-340" style="edgeStyle=orthogonalEdgeStyle;rounded=0;orthogonalLoop=1;jettySize=auto;html=1;" parent="C2fw_D1W394n6Z49bw6W-7" source="kWE39vU798PIdqg170Gp-337" target="kWE39vU798PIdqg170Gp-339" edge="1">
          <mxGeometry relative="1" as="geometry" />
        </mxCell>
        <mxCell id="kWE39vU798PIdqg170Gp-337" value="Correção do relátorio" style="rounded=0;whiteSpace=wrap;html=1;fillColor=#ffff88;strokeColor=#36393d;" parent="C2fw_D1W394n6Z49bw6W-7" vertex="1">
          <mxGeometry x="1210" y="480" width="120" height="60" as="geometry" />
        </mxCell>
        <mxCell id="kWE39vU798PIdqg170Gp-339" value="Envio do relátorio" style="rounded=0;whiteSpace=wrap;html=1;fillColor=#ffff88;strokeColor=#36393d;" parent="C2fw_D1W394n6Z49bw6W-7" vertex="1">
          <mxGeometry x="1030" y="480" width="120" height="60" as="geometry" />
        </mxCell>
        <mxCell id="kWE39vU798PIdqg170Gp-341" style="edgeStyle=orthogonalEdgeStyle;rounded=0;orthogonalLoop=1;jettySize=auto;html=1;entryX=0.115;entryY=0.558;entryDx=0;entryDy=0;entryPerimeter=0;" parent="C2fw_D1W394n6Z49bw6W-7" source="kWE39vU798PIdqg170Gp-339" target="kWE39vU798PIdqg170Gp-327" edge="1">
          <mxGeometry relative="1" as="geometry">
            <mxPoint x="1407" y="270" as="targetPoint" />
            <Array as="points">
              <mxPoint x="940" y="510" />
              <mxPoint x="940" y="370" />
              <mxPoint x="1050" y="370" />
              <mxPoint x="1050" y="180" />
              <mxPoint x="1180" y="180" />
              <mxPoint x="1180" y="270" />
              <mxPoint x="1300" y="270" />
              <mxPoint x="1300" y="120" />
              <mxPoint x="1412" y="120" />
            </Array>
          </mxGeometry>
        </mxCell>
        <mxCell id="kWE39vU798PIdqg170Gp-352" style="edgeStyle=orthogonalEdgeStyle;rounded=0;orthogonalLoop=1;jettySize=auto;html=1;" parent="C2fw_D1W394n6Z49bw6W-7" source="kWE39vU798PIdqg170Gp-343" edge="1">
          <mxGeometry relative="1" as="geometry">
            <mxPoint x="3459.999999999999" y="57.5" as="targetPoint" />
          </mxGeometry>
        </mxCell>
        <mxCell id="kWE39vU798PIdqg170Gp-343" value="Limpeza de linha por linha (para relátorio bater com o extrato)" style="rounded=0;whiteSpace=wrap;html=1;fillColor=#ffff88;strokeColor=#36393d;" parent="C2fw_D1W394n6Z49bw6W-7" vertex="1">
          <mxGeometry x="3280" y="27.5" width="120" height="60" as="geometry" />
        </mxCell>
        <mxCell id="C2fw_D1W394n6Z49bw6W-8" value="Cliente" style="swimlane;startSize=20;horizontal=0;html=1;" parent="C2fw_D1W394n6Z49bw6W-7" vertex="1">
          <mxGeometry y="435" width="4990" height="130" as="geometry" />
        </mxCell>
        <mxCell id="C2fw_D1W394n6Z49bw6W-38" value="Email" style="text;strokeColor=none;align=center;fillColor=none;html=1;verticalAlign=middle;whiteSpace=wrap;rounded=0;" parent="C2fw_D1W394n6Z49bw6W-8" vertex="1">
          <mxGeometry x="490" width="50" height="20" as="geometry" />
        </mxCell>
        <mxCell id="C2fw_D1W394n6Z49bw6W-43" style="edgeStyle=orthogonalEdgeStyle;rounded=0;orthogonalLoop=1;jettySize=auto;html=1;" parent="C2fw_D1W394n6Z49bw6W-8" source="C2fw_D1W394n6Z49bw6W-41" target="C2fw_D1W394n6Z49bw6W-42" edge="1">
          <mxGeometry relative="1" as="geometry" />
        </mxCell>
        <mxCell id="C2fw_D1W394n6Z49bw6W-41" value="Acessa Questor Zen" style="rounded=0;whiteSpace=wrap;html=1;fillColor=#ffff88;strokeColor=#36393d;" parent="C2fw_D1W394n6Z49bw6W-8" vertex="1">
          <mxGeometry x="270" y="30" width="120" height="60" as="geometry" />
        </mxCell>
        <mxCell id="C2fw_D1W394n6Z49bw6W-42" value="Insere os documentos" style="rounded=0;whiteSpace=wrap;html=1;fillColor=#ffff88;strokeColor=#36393d;" parent="C2fw_D1W394n6Z49bw6W-8" vertex="1">
          <mxGeometry x="110" y="30" width="120" height="60" as="geometry" />
        </mxCell>
        <mxCell id="C2fw_D1W394n6Z49bw6W-48" style="edgeStyle=orthogonalEdgeStyle;rounded=0;orthogonalLoop=1;jettySize=auto;html=1;" parent="C2fw_D1W394n6Z49bw6W-8" source="C2fw_D1W394n6Z49bw6W-45" target="C2fw_D1W394n6Z49bw6W-41" edge="1">
          <mxGeometry relative="1" as="geometry" />
        </mxCell>
        <mxCell id="C2fw_D1W394n6Z49bw6W-45" value="Recebe Cobrança" style="shape=document;whiteSpace=wrap;html=1;boundedLbl=1;fillColor=#cce5ff;strokeColor=#36393d;" parent="C2fw_D1W394n6Z49bw6W-8" vertex="1">
          <mxGeometry x="440" y="20" width="120" height="80" as="geometry" />
        </mxCell>
        <mxCell id="kWE39vU798PIdqg170Gp-175" style="edgeStyle=orthogonalEdgeStyle;rounded=0;orthogonalLoop=1;jettySize=auto;html=1;entryX=1;entryY=0.5;entryDx=0;entryDy=0;" parent="C2fw_D1W394n6Z49bw6W-8" source="kWE39vU798PIdqg170Gp-172" target="kWE39vU798PIdqg170Gp-174" edge="1">
          <mxGeometry relative="1" as="geometry" />
        </mxCell>
        <mxCell id="kWE39vU798PIdqg170Gp-172" value="Recebe comunicado" style="shape=document;whiteSpace=wrap;html=1;boundedLbl=1;fillColor=#cce5ff;strokeColor=#36393d;" parent="C2fw_D1W394n6Z49bw6W-8" vertex="1">
          <mxGeometry x="3100" y="30" width="120" height="80" as="geometry" />
        </mxCell>
        <mxCell id="kWE39vU798PIdqg170Gp-174" value="Identifica lançamento" style="rounded=0;whiteSpace=wrap;html=1;fillColor=#ffff88;strokeColor=#36393d;" parent="C2fw_D1W394n6Z49bw6W-8" vertex="1">
          <mxGeometry x="2910" y="40" width="120" height="60" as="geometry" />
        </mxCell>
        <mxCell id="kWE39vU798PIdqg170Gp-177" value="Email" style="text;strokeColor=none;align=center;fillColor=none;html=1;verticalAlign=middle;whiteSpace=wrap;rounded=0;" parent="C2fw_D1W394n6Z49bw6W-8" vertex="1">
          <mxGeometry x="3150" width="50" height="20" as="geometry" />
        </mxCell>
        <mxCell id="kWE39vU798PIdqg170Gp-204" style="edgeStyle=orthogonalEdgeStyle;rounded=0;orthogonalLoop=1;jettySize=auto;html=1;entryX=0;entryY=0.5;entryDx=0;entryDy=0;" parent="C2fw_D1W394n6Z49bw6W-8" source="kWE39vU798PIdqg170Gp-197" target="kWE39vU798PIdqg170Gp-199" edge="1">
          <mxGeometry relative="1" as="geometry" />
        </mxCell>
        <mxCell id="kWE39vU798PIdqg170Gp-197" value="Recebe comunicado" style="shape=document;whiteSpace=wrap;html=1;boundedLbl=1;fillColor=#cce5ff;strokeColor=#36393d;" parent="C2fw_D1W394n6Z49bw6W-8" vertex="1">
          <mxGeometry x="1710" y="25" width="120" height="80" as="geometry" />
        </mxCell>
        <mxCell id="kWE39vU798PIdqg170Gp-205" style="edgeStyle=orthogonalEdgeStyle;rounded=0;orthogonalLoop=1;jettySize=auto;html=1;" parent="C2fw_D1W394n6Z49bw6W-8" source="kWE39vU798PIdqg170Gp-199" target="kWE39vU798PIdqg170Gp-201" edge="1">
          <mxGeometry relative="1" as="geometry" />
        </mxCell>
        <mxCell id="kWE39vU798PIdqg170Gp-199" value="Informações enviadas?" style="rhombus;whiteSpace=wrap;html=1;fillColor=#ffcc99;strokeColor=#36393d;" parent="C2fw_D1W394n6Z49bw6W-8" vertex="1">
          <mxGeometry x="1880" y="17.5" width="105" height="95" as="geometry" />
        </mxCell>
        <mxCell id="kWE39vU798PIdqg170Gp-201" value="Retorna informamndo que já foi tudo enviado" style="rounded=0;whiteSpace=wrap;html=1;fillColor=#ffff88;strokeColor=#36393d;" parent="C2fw_D1W394n6Z49bw6W-8" vertex="1">
          <mxGeometry x="2040" y="35" width="120" height="60" as="geometry" />
        </mxCell>
        <mxCell id="kWE39vU798PIdqg170Gp-266" value="Sim" style="text;strokeColor=none;align=center;fillColor=none;html=1;verticalAlign=middle;whiteSpace=wrap;rounded=0;" parent="C2fw_D1W394n6Z49bw6W-8" vertex="1">
          <mxGeometry x="1980" y="35" width="60" height="30" as="geometry" />
        </mxCell>
        <mxCell id="qAqsIYxRw6M11E9_2Hnw-43" style="edgeStyle=orthogonalEdgeStyle;rounded=0;orthogonalLoop=1;jettySize=auto;html=1;entryX=0;entryY=0.5;entryDx=0;entryDy=0;" edge="1" parent="C2fw_D1W394n6Z49bw6W-8" source="qAqsIYxRw6M11E9_2Hnw-40" target="qAqsIYxRw6M11E9_2Hnw-42">
          <mxGeometry relative="1" as="geometry" />
        </mxCell>
        <mxCell id="qAqsIYxRw6M11E9_2Hnw-40" value="Recebe comunicado" style="shape=document;whiteSpace=wrap;html=1;boundedLbl=1;fillColor=#cce5ff;strokeColor=#36393d;" vertex="1" parent="C2fw_D1W394n6Z49bw6W-8">
          <mxGeometry x="4030" y="30" width="120" height="80" as="geometry" />
        </mxCell>
        <mxCell id="qAqsIYxRw6M11E9_2Hnw-46" style="edgeStyle=orthogonalEdgeStyle;rounded=0;orthogonalLoop=1;jettySize=auto;html=1;" edge="1" parent="C2fw_D1W394n6Z49bw6W-8" source="qAqsIYxRw6M11E9_2Hnw-42" target="qAqsIYxRw6M11E9_2Hnw-45">
          <mxGeometry relative="1" as="geometry" />
        </mxCell>
        <mxCell id="qAqsIYxRw6M11E9_2Hnw-42" value="Informações enviadas?" style="rhombus;whiteSpace=wrap;html=1;fillColor=#ffcc99;strokeColor=#36393d;" vertex="1" parent="C2fw_D1W394n6Z49bw6W-8">
          <mxGeometry x="4200" y="20" width="105" height="95" as="geometry" />
        </mxCell>
        <mxCell id="qAqsIYxRw6M11E9_2Hnw-45" value="Retorna informamndo que já foi tudo enviado" style="rounded=0;whiteSpace=wrap;html=1;fillColor=#ffff88;strokeColor=#36393d;" vertex="1" parent="C2fw_D1W394n6Z49bw6W-8">
          <mxGeometry x="4360" y="37.5" width="120" height="60" as="geometry" />
        </mxCell>
        <mxCell id="C2fw_D1W394n6Z49bw6W-44" style="edgeStyle=orthogonalEdgeStyle;rounded=0;orthogonalLoop=1;jettySize=auto;html=1;entryX=0.5;entryY=1;entryDx=0;entryDy=0;" parent="C2fw_D1W394n6Z49bw6W-7" source="C2fw_D1W394n6Z49bw6W-42" target="C2fw_D1W394n6Z49bw6W-10" edge="1">
          <mxGeometry relative="1" as="geometry" />
        </mxCell>
        <mxCell id="C2fw_D1W394n6Z49bw6W-47" style="edgeStyle=orthogonalEdgeStyle;rounded=0;orthogonalLoop=1;jettySize=auto;html=1;entryX=0.417;entryY=0.054;entryDx=0;entryDy=0;entryPerimeter=0;" parent="C2fw_D1W394n6Z49bw6W-7" source="C2fw_D1W394n6Z49bw6W-31" target="C2fw_D1W394n6Z49bw6W-45" edge="1">
          <mxGeometry relative="1" as="geometry" />
        </mxCell>
        <mxCell id="kWE39vU798PIdqg170Gp-173" style="edgeStyle=orthogonalEdgeStyle;rounded=0;orthogonalLoop=1;jettySize=auto;html=1;" parent="C2fw_D1W394n6Z49bw6W-7" source="kWE39vU798PIdqg170Gp-170" target="kWE39vU798PIdqg170Gp-172" edge="1">
          <mxGeometry relative="1" as="geometry" />
        </mxCell>
        <mxCell id="kWE39vU798PIdqg170Gp-176" style="edgeStyle=orthogonalEdgeStyle;rounded=0;orthogonalLoop=1;jettySize=auto;html=1;entryX=0;entryY=1;entryDx=0;entryDy=0;" parent="C2fw_D1W394n6Z49bw6W-7" source="kWE39vU798PIdqg170Gp-174" target="kWE39vU798PIdqg170Gp-100" edge="1">
          <mxGeometry relative="1" as="geometry" />
        </mxCell>
        <mxCell id="kWE39vU798PIdqg170Gp-198" style="edgeStyle=orthogonalEdgeStyle;rounded=0;orthogonalLoop=1;jettySize=auto;html=1;" parent="C2fw_D1W394n6Z49bw6W-7" source="kWE39vU798PIdqg170Gp-192" target="kWE39vU798PIdqg170Gp-197" edge="1">
          <mxGeometry relative="1" as="geometry" />
        </mxCell>
        <mxCell id="kWE39vU798PIdqg170Gp-270" style="edgeStyle=orthogonalEdgeStyle;rounded=0;orthogonalLoop=1;jettySize=auto;html=1;entryX=0.454;entryY=0.968;entryDx=0;entryDy=0;entryPerimeter=0;" parent="C2fw_D1W394n6Z49bw6W-7" source="kWE39vU798PIdqg170Gp-201" target="kWE39vU798PIdqg170Gp-267" edge="1">
          <mxGeometry relative="1" as="geometry">
            <Array as="points">
              <mxPoint x="2110" y="420" />
              <mxPoint x="1944" y="420" />
            </Array>
          </mxGeometry>
        </mxCell>
        <mxCell id="kWE39vU798PIdqg170Gp-354" style="edgeStyle=orthogonalEdgeStyle;rounded=0;orthogonalLoop=1;jettySize=auto;html=1;" parent="C2fw_D1W394n6Z49bw6W-7" source="kWE39vU798PIdqg170Gp-350" target="kWE39vU798PIdqg170Gp-353" edge="1">
          <mxGeometry relative="1" as="geometry" />
        </mxCell>
        <mxCell id="kWE39vU798PIdqg170Gp-350" value="Geração de arquivo TXT para subir ao questor" style="rounded=0;whiteSpace=wrap;html=1;fillColor=#ffff88;strokeColor=#36393d;" parent="C2fw_D1W394n6Z49bw6W-7" vertex="1">
          <mxGeometry x="3460" y="30" width="120" height="60" as="geometry" />
        </mxCell>
        <mxCell id="kWE39vU798PIdqg170Gp-356" style="edgeStyle=orthogonalEdgeStyle;rounded=0;orthogonalLoop=1;jettySize=auto;html=1;" parent="C2fw_D1W394n6Z49bw6W-7" source="kWE39vU798PIdqg170Gp-353" target="kWE39vU798PIdqg170Gp-355" edge="1">
          <mxGeometry relative="1" as="geometry" />
        </mxCell>
        <mxCell id="kWE39vU798PIdqg170Gp-353" value="Dados enviados ao questor" style="rounded=0;whiteSpace=wrap;html=1;fillColor=#ffff88;strokeColor=#36393d;" parent="C2fw_D1W394n6Z49bw6W-7" vertex="1">
          <mxGeometry x="3630" y="30" width="120" height="60" as="geometry" />
        </mxCell>
        <mxCell id="kWE39vU798PIdqg170Gp-358" style="edgeStyle=orthogonalEdgeStyle;rounded=0;orthogonalLoop=1;jettySize=auto;html=1;" parent="C2fw_D1W394n6Z49bw6W-7" source="kWE39vU798PIdqg170Gp-355" target="kWE39vU798PIdqg170Gp-357" edge="1">
          <mxGeometry relative="1" as="geometry" />
        </mxCell>
        <mxCell id="kWE39vU798PIdqg170Gp-355" value="Verificação de lançamentos VS nota" style="rounded=0;whiteSpace=wrap;html=1;fillColor=#ffff88;strokeColor=#36393d;" parent="C2fw_D1W394n6Z49bw6W-7" vertex="1">
          <mxGeometry x="3820" y="30" width="120" height="60" as="geometry" />
        </mxCell>
        <mxCell id="kWE39vU798PIdqg170Gp-364" style="edgeStyle=orthogonalEdgeStyle;rounded=0;orthogonalLoop=1;jettySize=auto;html=1;entryX=0;entryY=0.5;entryDx=0;entryDy=0;" parent="C2fw_D1W394n6Z49bw6W-7" source="kWE39vU798PIdqg170Gp-357" target="kWE39vU798PIdqg170Gp-362" edge="1">
          <mxGeometry relative="1" as="geometry" />
        </mxCell>
        <mxCell id="kWE39vU798PIdqg170Gp-367" style="edgeStyle=orthogonalEdgeStyle;rounded=0;orthogonalLoop=1;jettySize=auto;html=1;entryX=0.5;entryY=0;entryDx=0;entryDy=0;" parent="C2fw_D1W394n6Z49bw6W-7" source="kWE39vU798PIdqg170Gp-357" target="qAqsIYxRw6M11E9_2Hnw-5" edge="1">
          <mxGeometry relative="1" as="geometry">
            <mxPoint x="4094.21" y="172.5" as="targetPoint" />
          </mxGeometry>
        </mxCell>
        <mxCell id="kWE39vU798PIdqg170Gp-357" value="Lançamento consta nota no plano contabil?" style="rhombus;whiteSpace=wrap;html=1;fillColor=#ffcc99;strokeColor=#36393d;" parent="C2fw_D1W394n6Z49bw6W-7" vertex="1">
          <mxGeometry x="4020" y="1.25" width="148.42" height="117.5" as="geometry" />
        </mxCell>
        <mxCell id="kWE39vU798PIdqg170Gp-362" value="FIM" style="ellipse;whiteSpace=wrap;html=1;fillColor=#e51400;strokeColor=#B20000;fontColor=#ffffff;" parent="C2fw_D1W394n6Z49bw6W-7" vertex="1">
          <mxGeometry x="4260" y="35" width="70" height="50" as="geometry" />
        </mxCell>
        <mxCell id="kWE39vU798PIdqg170Gp-365" value="Sim" style="text;html=1;align=center;verticalAlign=middle;resizable=0;points=[];autosize=1;strokeColor=none;fillColor=none;" parent="C2fw_D1W394n6Z49bw6W-7" vertex="1">
          <mxGeometry x="4190" y="35" width="40" height="30" as="geometry" />
        </mxCell>
        <mxCell id="qAqsIYxRw6M11E9_2Hnw-1" value="Não" style="text;html=1;align=center;verticalAlign=middle;resizable=0;points=[];autosize=1;strokeColor=none;fillColor=none;" vertex="1" parent="C2fw_D1W394n6Z49bw6W-7">
          <mxGeometry x="4085" y="127.5" width="50" height="30" as="geometry" />
        </mxCell>
        <mxCell id="qAqsIYxRw6M11E9_2Hnw-41" style="edgeStyle=orthogonalEdgeStyle;rounded=0;orthogonalLoop=1;jettySize=auto;html=1;entryX=0.5;entryY=0;entryDx=0;entryDy=0;" edge="1" parent="C2fw_D1W394n6Z49bw6W-7" source="qAqsIYxRw6M11E9_2Hnw-5" target="qAqsIYxRw6M11E9_2Hnw-40">
          <mxGeometry relative="1" as="geometry" />
        </mxCell>
        <mxCell id="qAqsIYxRw6M11E9_2Hnw-5" value="Verifica com o Fiscal do cliente (Questor Zen)" style="rounded=0;whiteSpace=wrap;html=1;fillColor=#ffff88;strokeColor=#36393d;" vertex="1" parent="C2fw_D1W394n6Z49bw6W-7">
          <mxGeometry x="4034.21" y="162.5" width="120" height="60" as="geometry" />
        </mxCell>
        <mxCell id="qAqsIYxRw6M11E9_2Hnw-50" style="edgeStyle=orthogonalEdgeStyle;rounded=0;orthogonalLoop=1;jettySize=auto;html=1;" edge="1" parent="C2fw_D1W394n6Z49bw6W-7" source="qAqsIYxRw6M11E9_2Hnw-47" target="qAqsIYxRw6M11E9_2Hnw-49">
          <mxGeometry relative="1" as="geometry" />
        </mxCell>
        <mxCell id="qAqsIYxRw6M11E9_2Hnw-47" value="Recebe comunicado" style="shape=document;whiteSpace=wrap;html=1;boundedLbl=1;fillColor=#cce5ff;strokeColor=#36393d;" vertex="1" parent="C2fw_D1W394n6Z49bw6W-7">
          <mxGeometry x="4360" y="330" width="120" height="80" as="geometry" />
        </mxCell>
        <mxCell id="qAqsIYxRw6M11E9_2Hnw-48" style="edgeStyle=orthogonalEdgeStyle;rounded=0;orthogonalLoop=1;jettySize=auto;html=1;" edge="1" parent="C2fw_D1W394n6Z49bw6W-7" source="qAqsIYxRw6M11E9_2Hnw-45" target="qAqsIYxRw6M11E9_2Hnw-47">
          <mxGeometry relative="1" as="geometry" />
        </mxCell>
        <mxCell id="qAqsIYxRw6M11E9_2Hnw-52" style="edgeStyle=orthogonalEdgeStyle;rounded=0;orthogonalLoop=1;jettySize=auto;html=1;" edge="1" parent="C2fw_D1W394n6Z49bw6W-7" source="qAqsIYxRw6M11E9_2Hnw-49" target="qAqsIYxRw6M11E9_2Hnw-51">
          <mxGeometry relative="1" as="geometry" />
        </mxCell>
        <mxCell id="qAqsIYxRw6M11E9_2Hnw-49" value="Envia notificação ao fiscal interno" style="rounded=0;whiteSpace=wrap;html=1;fillColor=#ffff88;strokeColor=#36393d;" vertex="1" parent="C2fw_D1W394n6Z49bw6W-7">
          <mxGeometry x="4560" y="340" width="120" height="60" as="geometry" />
        </mxCell>
        <mxCell id="qAqsIYxRw6M11E9_2Hnw-55" style="edgeStyle=orthogonalEdgeStyle;rounded=0;orthogonalLoop=1;jettySize=auto;html=1;entryX=1;entryY=0.5;entryDx=0;entryDy=0;" edge="1" parent="C2fw_D1W394n6Z49bw6W-7" source="qAqsIYxRw6M11E9_2Hnw-54" target="kWE39vU798PIdqg170Gp-362">
          <mxGeometry relative="1" as="geometry">
            <Array as="points">
              <mxPoint x="4795" y="60" />
            </Array>
          </mxGeometry>
        </mxCell>
      </root>
    </mxGraphModel>
  </diagram>
</mxfile>
